<?xml version="1.0" encoding="iso-8859-1"?>
<!-- Generator: Adobe Illustrator 19.0.0, SVG Export Plug-In . SVG Version: 6.00 Build 0)  -->
<svg version="1.1" id="Layer_1" xmlns="http://www.w3.org/2000/svg" xmlns:xlink="http://www.w3.org/1999/xlink" x="0px" y="0px"
	 viewBox="0 0 469.003 469.003" style="enable-background:new 0 0 469.003 469.003;" xml:space="preserve">
<g>
	<g>
		<g>
			<path d="M464.235,429.193c-79.544-35.147-159.063-54.767-236.346-58.313c-0.383-0.018-0.759,0-1.13,0.035
				c-25.085-26.487-36.14-60.013-32.864-99.925c1.831-22.298,7.909-41.418,12.194-52.592c6.84,15.601,12.671,38.192,12.166,69.521
				c-0.056,3.454,2.112,6.553,5.375,7.686c0.861,0.299,1.747,0.443,2.622,0.443c2.445,0,4.816-1.124,6.359-3.145
				c2.08-2.724,45.427-60.403,26.334-106.553c28.884,6.698,72.519,22.104,81.556,48.461c1.26,3.674,4.974,5.914,8.812,5.308
				c3.836-0.604,6.684-3.877,6.754-7.76c0.015-0.813,0.207-20.179-12.74-43.518c-10.949-19.737-33.728-46.183-80.555-63.581
				c17.327-22.106,44.372-27.035,65.034-27.035c13.577,0,23.472,2.192,23.559,2.211c0.707,0.162,1.419,0.222,2.113,0.194
				c4.273-0.165,7.686-3.681,7.686-7.994c0-2.785-1.423-5.238-3.582-6.67c-20.88-15.54-45.373-23.418-72.808-23.418
				c-31.39,0-57.52,10.371-67.173,14.76c-22.297-11.84-44.246-17.839-65.298-17.839c-48.811,0-75.74,31.783-76.862,33.136
				c-2.375,2.862-2.464,6.984-0.215,9.946c2.25,2.962,6.244,3.984,9.638,2.465c0.067-0.03,7.041-3.011,18.075-3.011
				c14.542,0,35.536,5.222,57.468,28.205c-16.472,2.369-41.74,9.42-59.107,30.188c-17.385,20.789-22.821,50.124-16.157,87.193
				c0.626,3.481,3.467,6.13,6.982,6.526c3.514,0.396,6.876-1.572,8.26-4.827c0.063-0.149,6.499-15.056,20.963-29.656
				c9.489-9.578,20.069-16.777,31.642-21.606c-8.142,10.483-17.435,24.872-24.579,42.807c-9.3,23.345-13.004,47.843-11.011,72.812
				c1.61,20.174,6.988,40.648,15.999,61.176C52.301,385.633,6.012,411.926,4.001,413.087c-3.826,2.209-5.137,7.102-2.927,10.928
				c1.482,2.566,4.17,4.001,6.935,4.001c1.357,0,2.733-0.346,3.993-1.074c0.475-0.274,47.454-26.961,128.706-36.923
				c3.116,5.921,6.533,11.842,10.251,17.757c1.52,2.418,4.121,3.744,6.781,3.744c1.454,0,2.927-0.396,4.249-1.228
				c3.741-2.351,4.867-7.289,2.516-11.03c-5.424-8.63-10.141-17.215-14.176-25.751h21.672c4.419,0,8-3.582,8-8c0-4.419-3.581-8-8-8
				h-28.438c-7.079-18.959-10.678-37.649-10.778-56h21.216c4.419,0,8-3.582,8-8c0-4.419-3.581-8-8-8h-20.406
				c1.381-12.894,4.511-25.608,9.427-38.114c2.854-7.26,6.125-13.896,9.527-19.886h13.452c4.419,0,8-3.581,8-8c0-4.418-3.581-8-8-8
				h-3.091c7.908-10.783,15.017-17.739,17.783-20.293c2.342-0.219,4.704-0.387,7.107-0.451c1.847,1.746,4.933,4.997,8.446,9.978
				c-0.706,1.404-10.781,21.785-15.928,50.766h-18.317c-4.418,0-8,3.582-8,8c0,4.418,3.582,8,8,8h16.146
				c-0.051,0.54-0.107,1.075-0.153,1.619c-1.61,18.916-0.189,36.784,4.142,53.381h-21.135c-4.418,0-8,3.581-8,8c0,4.418,3.582,8,8,8
				h26.376c8.711,21.925,23.024,41.226,42.707,57.254c1.484,1.209,3.271,1.797,5.046,1.797c2.323,0,4.627-1.007,6.209-2.949
				c1.607-1.974,2.111-4.482,1.599-6.788c70.335,5.249,142.523,24.055,214.829,56.004c1.052,0.465,2.149,0.685,3.229,0.685
				c3.071,0,6.001-1.779,7.322-4.769C470.104,435.703,468.276,430.979,464.235,429.193z M195.416,176.249
				c-1.365-0.988-3.007-1.52-4.692-1.52c-31.253,0-59.336,11.8-81.214,34.124c-4.321,4.409-7.999,8.817-11.08,12.934
				c-0.538-21.292,4.527-38.428,15.145-51.124c20.399-24.394,55.228-25.629,62.003-25.629c0.533,0,0.848,0.008,0.896,0.01
				c3.091,0.112,5.985-1.576,7.405-4.334c1.419-2.758,1.117-6.088-0.777-8.545c-26.499-34.377-53.817-44.281-73.842-45.904
				c10.625-5.755,25.061-10.791,43.043-10.791c19.442,0,40.021,5.991,61.165,17.807c2.354,1.316,5.223,1.351,7.614,0.104
				c0.284-0.148,28.811-14.832,63.691-14.832c10.856,0,21.169,1.404,30.884,4.195c-25.222,2.194-54.73,12.078-72.242,42.723
				c-1.197,2.095-1.385,4.619-0.511,6.868c0.874,2.249,2.717,3.983,5.015,4.72c38.626,12.38,65.864,32.14,80.956,58.731
				c0.521,0.919,1.018,1.83,1.492,2.733c-32.92-23.486-83.635-30.919-86.503-31.323c-3.293-0.463-6.528,1.157-8.127,4.071
				c-1.601,2.914-1.232,6.513,0.925,9.042c20.495,24.029,8.247,58.966-3.456,81.311
				C227.081,199.921,196.865,177.299,195.416,176.249z"/>
			<path d="M326.491,295.322c-3.97,1.938-5.617,6.729-3.679,10.699c1.939,3.97,6.728,5.617,10.699,3.679
				c11.388-5.561,23.855-5.936,35.388-1.122c1.413,1.214,3.245,1.933,5.214,1.933h0.775c1.969,0,3.801-0.719,5.214-1.933
				c11.533-4.814,24-4.439,35.388,1.122c1.13,0.552,2.326,0.813,3.504,0.813c2.961,0,5.808-1.651,7.195-4.492
				c1.939-3.97,0.292-8.761-3.679-10.699c-15.448-7.543-32.34-8.125-48.01-1.743C358.831,287.197,341.939,287.78,326.491,295.322z"
				/>
			<path d="M24.511,44.996C35.9,39.434,48.365,39.06,59.9,43.874c1.413,1.214,3.245,1.933,5.214,1.933h0.774
				c1.969,0,3.801-0.719,5.214-1.933c11.534-4.814,24-4.44,35.388,1.122c1.13,0.552,2.326,0.813,3.504,0.813
				c2.961,0,5.808-1.651,7.195-4.492c1.938-3.97,0.292-8.761-3.679-10.699c-15.448-7.542-32.34-8.125-48.01-1.743
				c-15.67-6.381-32.563-5.799-48.01,1.743c-3.97,1.938-5.617,6.729-3.679,10.699C15.751,45.288,20.54,46.934,24.511,44.996z"/>
			<path d="M220.513,423.511h-6c-4.419,0-8,3.581-8,8c0,4.418,3.581,8,8,8h6c4.418,0,8-3.582,8-8
				C228.513,427.092,224.932,423.511,220.513,423.511z"/>
			<path d="M269.343,423.511h-13.317c-4.419,0-8,3.581-8,8c0,4.418,3.581,8,8,8h13.317c4.418,0,8-3.582,8-8
				C277.343,427.092,273.761,423.511,269.343,423.511z"/>
			<path d="M367.001,423.511h-13.317c-4.419,0-8,3.581-8,8c0,4.418,3.581,8,8,8h13.317c4.418,0,8-3.582,8-8
				C375.001,427.092,371.42,423.511,367.001,423.511z"/>
			<path d="M318.172,423.511h-13.317c-4.419,0-8,3.581-8,8c0,4.418,3.581,8,8,8h13.317c4.418,0,8-3.582,8-8
				C326.172,427.092,322.591,423.511,318.172,423.511z"/>
		</g>
	</g>
</g>
<g>
</g>
<g>
</g>
<g>
</g>
<g>
</g>
<g>
</g>
<g>
</g>
<g>
</g>
<g>
</g>
<g>
</g>
<g>
</g>
<g>
</g>
<g>
</g>
<g>
</g>
<g>
</g>
<g>
</g>
</svg>
